<svg width="15" height="15" viewBox="0 0 15 15" fill="none" xmlns="http://www.w3.org/2000/svg">
<path d="M14.6325 7.9681L7.55201 0.901526C7.30236 0.651872 6.96602 0.436893 6.543 0.263523C6.11997 0.0901526 5.73509 0 5.38488 0H1.2656C0.92233 0 0.624133 0.124827 0.37448 0.37448C0.124827 0.627601 0 0.92233 0 1.2656V5.38488C0 5.73509 0.0866852 6.11997 0.263523 6.543C0.440361 6.96602 0.651872 7.29889 0.901526 7.54161L7.9785 14.6325C8.22122 14.8752 8.51942 15 8.86963 15C9.2129 15 9.51456 14.8786 9.77115 14.6325L14.6325 9.76075C14.8752 9.51803 15 9.21983 15 8.86963C14.9965 8.52635 14.8752 8.22816 14.6325 7.9681ZM4.0638 4.0638C3.81761 4.30999 3.51595 4.43481 3.16921 4.43481C2.819 4.43481 2.5208 4.30999 2.27462 4.0638C2.02843 3.81761 1.90361 3.51942 1.90361 3.16921C1.90361 2.819 2.02843 2.5208 2.27462 2.27462C2.5208 2.02843 2.82247 1.90361 3.16921 1.90361C3.51942 1.90361 3.81761 2.02843 4.0638 2.27462C4.30999 2.5208 4.43481 2.819 4.43481 3.16921C4.43481 3.51942 4.30999 3.81761 4.0638 4.0638Z" fill="#CC9966"/>
</svg>
