<svg width="17" height="12" viewBox="0 0 17 12" fill="none" xmlns="http://www.w3.org/2000/svg">
<path d="M16.4993 0.601607C15.469 0.165804 14.4378 3.22167e-08 13.4072 3.22167e-08C10.1356 -0.000267825 6.86417 1.66982 3.59252 1.66982C2.77202 1.66982 1.95205 1.56482 1.13154 1.30232C1.03937 1.27286 0.946938 1.25893 0.856627 1.25893C0.399494 1.25893 0 1.61571 0 2.11098V10.609C0 10.9473 0.192044 11.2679 0.50043 11.3981C1.53077 11.8342 2.56191 12 3.59252 12C6.86417 12 10.1358 10.3299 13.4075 10.3299C14.228 10.3299 15.048 10.4349 15.8685 10.6974C15.9606 10.7269 16.0531 10.7408 16.1434 10.7408C16.6005 10.7408 17 10.384 17 9.88875V1.39098C16.9997 1.05241 16.8077 0.732054 16.4993 0.601607ZM1.27498 2.68446C1.80941 2.81946 2.36721 2.88723 2.94095 2.92366C2.78477 3.71089 2.0984 4.3042 1.27498 4.3042V2.68446ZM1.27498 10.3184V9.03857C2.18792 9.03857 2.92661 9.76902 2.96725 10.6832C2.36881 10.6347 1.80941 10.5142 1.27498 10.3184ZM8.49987 8.57143C7.32609 8.57143 6.3749 7.41991 6.3749 6C6.3749 4.57982 7.32635 3.42857 8.49987 3.42857C9.67338 3.42857 10.6248 4.57982 10.6248 6C10.6248 7.42045 9.67311 8.57143 8.49987 8.57143ZM15.7248 9.31554C15.2594 9.19795 14.7762 9.13205 14.2819 9.08946C14.4378 8.39089 15.0124 7.86054 15.7248 7.76946V9.31554ZM15.7248 2.99116C14.9043 2.88643 14.2676 2.19563 14.2423 1.3425C14.7613 1.40063 15.2541 1.50937 15.7248 1.68161V2.99116Z" fill="#6C6C6C"/>
</svg>
